<?xml version="1.0" standalone="no"?><!DOCTYPE svg PUBLIC "-//W3C//DTD SVG 1.1//EN" "http://www.w3.org/Graphics/SVG/1.1/DTD/svg11.dtd"><svg t="1650868957470" class="icon" viewBox="0 0 1024 1024" version="1.1" xmlns="http://www.w3.org/2000/svg" p-id="1158" xmlns:xlink="http://www.w3.org/1999/xlink" width="200" height="200"><defs><style type="text/css">@font-face { font-family: feedback-iconfont; src: url("//at.alicdn.com/t/font_1031158_u69w8yhxdu.woff2?t=1630033759944") format("woff2"), url("//at.alicdn.com/t/font_1031158_u69w8yhxdu.woff?t=1630033759944") format("woff"), url("//at.alicdn.com/t/font_1031158_u69w8yhxdu.ttf?t=1630033759944") format("truetype"); }
</style></defs><path d="M511.318478 54.973032c-187.44002 0-339.387687 151.952784-339.387687 339.38871 0 141.897777 282.960537 565.934376 339.387687 565.644781 55.540967 0.289596 339.38871-425.650353 339.38871-565.644781C850.707189 206.925816 698.755428 54.973032 511.318478 54.973032zM511.318478 875.160113c-47.022966 0.240477-282.82239-362.550223-282.82239-480.798371 0-156.198481 126.624932-282.823414 282.82239-282.823414s282.821367 126.624932 282.821367 282.823414C794.139845 511.028882 557.603641 875.40059 511.318478 875.160113zM511.318478 252.950036c-78.099752 0-141.411707 63.311954-141.411707 141.411707 0 78.097706 63.311954 141.411707 141.411707 141.411707 78.098729 0 141.410684-63.314001 141.410684-141.411707C652.729162 316.260967 589.417207 252.950036 511.318478 252.950036zM511.318478 479.205083c-46.859237 0-84.847433-37.984103-84.847433-84.84334 0-46.862307 37.988196-84.84641 84.847433-84.84641s84.84641 37.984103 84.84641 84.84641C596.164888 441.222003 558.177716 479.205083 511.318478 479.205083z" p-id="1159"></path></svg>